<?xml version="1.0" encoding="utf-8"?>
<!-- Generator: Adobe Illustrator 23.0.6, SVG Export Plug-In . SVG Version: 6.00 Build 0)  -->
<svg version="1.1" id="Layer_1" xmlns="http://www.w3.org/2000/svg" xmlns:xlink="http://www.w3.org/1999/xlink" x="0px" y="0px"
	 viewBox="0 0 224.9 178" style="enable-background:new 0 0 224.9 178;" xml:space="preserve">
<g>
	<path d="M219.2,87.6c-2.9-6.4-11.3-11.9-17.8-13.7c-7.1-2-16.6-1.1-22.9,3c-6.4,4.1-12,10.2-13.7,17.8c-0.1,0.3-0.1,0.6-0.2,0.8
		c-0.4,0.1-0.9,0.1-1.3,0.2c-8.2,0.9-16.5,1.4-24.8,1.6c5.8-10.2,11.5-20.3,17.8-30.2c0.3-0.5,0.7-1,1-1.5c4.4-0.7,8.6-1.9,12.8-4.3
		c12.4-7.1,18.8-21.6,15.1-35.5c-4.9-18.5-25-29.6-43.3-24.4c-4.2,1.2-8,3.1-11.4,5.5c-0.5,0-1-0.1-1.5-0.1
		c-10.6-0.5-21.2-1.2-31.8-1.5C73,4.4,46.8,4.3,24.7,15.3C9.8,22.8-0.9,39.3,0.1,56.2c0.9,15.5,13.1,30.5,29.8,29.8
		c12.1-0.5,24.1-8.3,28.3-19.7c1.4-0.3,2.9-0.6,4.3-0.9c8.7-0.9,17.4-1.1,26.2-1C85.4,70,82.3,75.7,79,81.3
		c-3.4,5.8-6.8,11.6-10.4,17.3C64.8,99,61,99.4,57.1,100c-13.1,1.9-26,7.6-33.2,19.3c-9.7,15.9-4.2,35.2,8.6,47.5
		c13.8,13.2,35.2,14.8,50.9,4.2c6.1-4.1,11.4-9,16.1-14.3c11.4,0,22.9,0.3,34.2,0.1c14-0.2,27.7-1.1,41.6-3.1
		c10.3-1.5,21-4.1,29.8-10c8.7-5.8,15.6-13.8,18.3-24.1C226.7,108.3,223.9,97.9,219.2,87.6z"/>
</g>
<g id="RAW_ICONS_-_SQUARE__x2F__ROUNDED__x2F__CIRCLE">
</g>
</svg>
